<?xml version="1.0" standalone="no"?>
<!DOCTYPE svg PUBLIC "-//W3C//DTD SVG 20010904//EN"
 "http://www.w3.org/TR/2001/REC-SVG-20010904/DTD/svg10.dtd">
<svg version="1.0" xmlns="http://www.w3.org/2000/svg"
 width="240.000000pt" height="240.000000pt" viewBox="0 0 240.000000 240.000000"
 preserveAspectRatio="xMidYMid meet">
<metadata>
Created by potrace 1.11, written by Peter Selinger 2001-2013
</metadata>
<g transform="translate(0.000000,240.000000) scale(0.100000,-0.100000)"
fill="#000000" stroke="none">
<path d="M2048 2375 c-2 -2 -23 -5 -48 -9 -78 -10 -114 -18 -132 -27 -10 -5
-18 -7 -18 -5 0 8 -137 -43 -195 -72 -27 -13 -74 -42 -104 -63 -29 -21 -57
-36 -62 -33 -14 8 -129 18 -209 18 -132 -1 -288 -28 -352 -60 -15 -8 -31 -15
-35 -15 -39 -5 -145 -72 -210 -132 -41 -38 -107 -118 -140 -172 -14 -22 -76
-147 -78 -155 0 -3 -11 -32 -24 -65 -13 -33 -35 -103 -50 -156 -15 -54 -36
-105 -46 -115 -10 -11 -52 -41 -94 -69 -127 -85 -169 -160 -115 -210 15 -14
36 -26 48 -26 12 -1 39 -3 61 -4 73 -4 179 -16 230 -25 28 -5 64 -12 80 -15
17 -3 39 -7 50 -9 43 -9 163 -19 230 -19 65 -1 91 1 216 18 l46 7 23 -47 c32
-66 61 -97 143 -153 90 -61 101 -65 120 -44 43 48 59 148 44 270 -6 45 -5 52
10 53 41 3 89 -7 112 -23 127 -89 137 -358 19 -471 -28 -27 -111 -71 -133 -70
-85 3 -147 21 -270 78 -118 55 -118 55 -143 60 -12 2 -27 7 -33 10 -5 4 -21 4
-34 1 -33 -8 -23 -33 42 -103 66 -70 92 -126 97 -205 4 -79 -7 -134 -43 -210
-16 -35 -27 -67 -24 -71 9 -15 57 0 122 39 61 36 188 150 207 186 5 10 26 20
47 23 20 3 53 7 72 10 266 38 511 185 661 400 136 194 186 491 123 740 -18 72
-56 169 -90 230 -36 67 -128 195 -140 195 -11 0 28 135 55 195 20 44 63 105
137 197 30 37 28 77 -6 105 -24 21 -37 24 -96 22 -38 -1 -70 -3 -71 -4z"/>
</g>
</svg>
